<svg xmlns="http://www.w3.org/2000/svg" viewBox="0 0 24 24"
  fill="currentColor">
  <path
    d="M9.09608 6.46807L8.39645 5.37856C8.12004 4.94781 7.8275 4.85908 7.49462 5.07311C7.16497 5.28445 7.11926 5.6512 7.3704 6.0427L8.06788 7.12898L7.69144 7.37097L5.97114 4.69184L6.34757 4.44984L6.91706 5.33661L6.92406 5.33177C6.92943 5.07741 7.06334 4.86392 7.3134 4.70367C7.79147 4.3966 8.34483 4.47081 8.69814 5.02095L9.47251 6.22661L9.09608 6.4686V6.46807Z"
  />
  <path
    d="M11.8919 5.76628L11.8441 5.39953L11.8354 5.40061C11.7058 5.7039 11.4257 5.88782 11.089 5.93138C10.398 6.02118 9.76721 5.57377 9.67848 4.89134C9.58061 4.13633 10.0533 3.53672 10.7492 3.44638C11.0949 3.40174 11.4015 3.49209 11.6198 3.73677L11.6284 3.73569L11.5854 3.40282L12.029 3.34528L12.3361 5.70874L11.8924 5.76628H11.8919ZM11.7478 4.58805C11.6881 4.12718 11.3052 3.78678 10.8148 3.85024C10.3711 3.90778 10.0576 4.33476 10.1184 4.79939C10.1759 5.24304 10.5889 5.58398 11.0326 5.52644C11.4934 5.46675 11.8059 5.03546 11.7478 4.58751V4.58805Z"
  />
  <path
    d="M12.6701 6.52399L13.7354 3.52865L14.1204 3.66578L13.9978 4.01049L14.0059 4.01318C14.293 3.80937 14.6286 3.77817 14.9486 3.89164C15.6175 4.12933 15.9273 4.82412 15.681 5.5173C15.4562 6.14971 14.7813 6.49388 14.1365 6.26479C13.7961 6.14379 13.5412 5.8975 13.4815 5.6028L13.4735 5.60012L13.0917 6.67457L12.6701 6.52453V6.52399ZM15.2685 5.34253C15.4143 4.93329 15.2298 4.42457 14.7797 4.26431C14.3581 4.11428 13.8999 4.37617 13.7515 4.79347C13.5955 5.23121 13.7918 5.70713 14.2296 5.86308C14.6635 6.01742 15.1158 5.77166 15.2685 5.34199V5.34253Z"
  />
  <path
    d="M15.0464 7.41076L17.3255 5.19357L17.6105 5.48665L17.3486 5.74155L17.3545 5.74746C17.7019 5.69154 18.017 5.81146 18.2536 6.05506C18.7484 6.56379 18.7199 7.32418 18.1929 7.83721C17.7116 8.30506 16.9539 8.31582 16.4769 7.82592C16.2247 7.56671 16.1047 7.23384 16.1816 6.94237L16.1757 6.93646L15.3583 7.73127L15.0464 7.41076ZM17.8993 7.49896C18.2106 7.1962 18.2698 6.65843 17.9369 6.31588C17.625 5.99537 17.098 6.02764 16.7807 6.33631C16.4478 6.66005 16.4134 7.17415 16.7372 7.50702C17.0582 7.83721 17.5728 7.81677 17.8993 7.49842V7.49896Z"
  />
  <path
    d="M16.8646 9.59301L17.7767 9.62151L19.6271 7.90766L19.797 8.3583L18.3133 9.66722L20.2977 9.68658L20.4676 10.1372L17.0281 10.027L16.8641 9.59247L16.8646 9.59301Z"
  />
  <path
    d="M17.4911 11.223L20.6634 11.4348L20.6359 11.8425L20.2713 11.8183V11.8269C20.5451 12.0479 20.6661 12.3619 20.6435 12.7013C20.5961 13.4095 20.0116 13.8967 19.2781 13.8478C18.6086 13.8032 18.0939 13.2471 18.1391 12.5647C18.1633 12.2038 18.3305 11.8919 18.5984 11.7548V11.7462L17.4615 11.6704L17.4911 11.224V11.223ZM19.3329 13.4025C19.7664 13.4316 20.2057 13.1159 20.2375 12.6394C20.267 12.1931 19.8911 11.8231 19.4491 11.7935C18.9855 11.7623 18.5806 12.0807 18.5494 12.5442C18.5188 13.0035 18.878 13.3724 19.3329 13.4025Z"
  />
  <path
    d="M17.1561 15.616L18.2918 16.2381C18.7409 16.4839 19.0399 16.4221 19.2297 16.0752C19.4179 15.7321 19.2824 15.3879 18.8748 15.1648L17.7428 14.5447L17.9579 14.1522L20.7499 15.6816L20.5348 16.0741L19.6104 15.5676L19.6061 15.5751C19.7228 15.8009 19.7078 16.0526 19.5647 16.3129C19.2921 16.8109 18.7704 17.0109 18.1966 16.6969L16.9404 16.0085L17.1555 15.616H17.1561Z"
  />
  <path
    d="M15.8714 15.9311L16.1359 16.8044L18.351 18.0101L17.9783 18.315L16.2645 17.3277L16.8802 19.2141L16.5075 19.519L15.5132 16.2252L15.873 15.9311H15.8714Z"
  />
  <path
    d="M14.3522 19.7261C14.4302 19.8809 14.5624 19.9573 14.7367 19.8949C14.8985 19.8369 14.9609 19.6917 14.9147 19.5621C14.8469 19.3717 14.6318 19.3841 14.3844 19.3948C14.0338 19.4104 13.6741 19.3238 13.5251 18.9065C13.3702 18.4731 13.5853 18.0768 14.0231 17.9208C14.428 17.7761 14.9157 17.9133 15.1002 18.4317L14.6786 18.5817C14.5614 18.3177 14.3748 18.2289 14.1516 18.3085C13.9569 18.3779 13.8725 18.55 13.937 18.7323C13.9919 18.8861 14.1457 18.9458 14.4393 18.9366C15.0523 18.9146 15.2309 19.12 15.3218 19.3755C15.4632 19.7723 15.2212 20.1557 14.8523 20.2875C14.4796 20.4203 14.0833 20.2698 13.9295 19.8766L14.3511 19.7266L14.3522 19.7261Z"
  />
  <path
    d="M12.8217 18.2784L13.0605 20.65L12.6152 20.6946L12.3764 18.3231L12.8217 18.2784ZM13.0884 20.9242L13.1411 21.4464L12.6959 21.491L12.6432 20.9688L13.0884 20.9242Z"
  />
  <path
    d="M9.37249 18.7436C9.66396 18.2537 10.1721 18.0402 10.6911 18.1445C11.3617 18.2795 11.7801 18.9253 11.6462 19.5916C11.5047 20.2961 10.8836 20.7414 10.2006 20.6042C9.66934 20.4972 9.25096 20.0665 9.21385 19.5325L9.69891 19.6298C9.77474 19.9304 9.9522 20.1369 10.2684 20.2009C10.7282 20.2934 11.1062 20.0052 11.2025 19.5287C11.2961 19.0646 11.0535 18.6344 10.6104 18.5451C10.3109 18.4849 10.0382 18.5968 9.86186 18.842L9.37249 18.7436Z"
  />
  <path
    d="M7.44354 18.7006C7.3704 18.8576 7.39245 19.0087 7.54948 19.1071C7.69521 19.1985 7.84793 19.1571 7.92107 19.0404C8.02862 18.8689 7.88504 18.7086 7.72371 18.5209C7.49409 18.2553 7.33867 17.9197 7.57368 17.5438C7.81782 17.1534 8.26201 17.0765 8.65619 17.3228C9.0208 17.5514 9.21547 18.0181 8.92346 18.4849L8.54434 18.2478C8.67878 17.9918 8.63253 17.7907 8.43195 17.6648C8.25717 17.5551 8.06949 17.5955 7.96678 17.7595C7.8802 17.8982 7.9286 18.0552 8.11789 18.2806C8.51584 18.7479 8.46475 19.0157 8.32117 19.2453C8.09746 19.6029 7.64627 19.6502 7.31447 19.4427C6.97891 19.2324 6.85146 18.828 7.06441 18.4639L7.44354 18.7016V18.7006Z"
  />
  <path
    d="M5.62213 15.3939C6.1642 15.2169 6.68744 15.3906 7.00902 15.8106C7.42471 16.3538 7.31501 17.1152 6.7751 17.5288C6.20453 17.9654 5.44413 17.8923 5.02038 17.3395C4.69073 16.9093 4.65954 16.3097 4.98327 15.8832L5.28388 16.2758C5.14299 16.5517 5.14084 16.8243 5.33658 17.0808C5.6216 17.453 6.0959 17.4852 6.48202 17.1894C6.85791 16.9017 6.95847 16.4178 6.68368 16.0596C6.49815 15.8171 6.21905 15.7219 5.92436 15.7902L5.62106 15.3939H5.62213Z"
  />
  <path d="M6.17549 14.4904L3.19628 15.6138L3.03818 15.1949L6.01738 14.0715L6.17549 14.4904Z"
  />
  <path
    d="M5.67214 11.8027L5.41456 11.8167V11.8253C5.62321 11.9301 5.75388 12.1947 5.77055 12.5082C5.79798 13.0196 5.549 13.5154 4.7117 13.5606L3.3845 13.6321L3.3603 13.1853L4.65308 13.1159C5.15159 13.089 5.38175 12.8911 5.36024 12.4835C5.33819 12.071 5.03866 11.8763 4.57941 11.9011L3.29523 11.9705L3.27103 11.5236L5.65063 11.3956L5.67268 11.8037L5.67214 11.8027Z"
  />
  <path
    d="M5.70226 10.8374L2.74994 9.64678L2.91718 9.23163L3.96636 9.65485L3.96959 9.64678C3.79858 9.3693 3.78782 9.04018 3.90828 8.74065C4.16103 8.11416 4.89669 7.80817 5.53501 8.06576C6.15344 8.31528 6.49976 9.02082 6.24862 9.64302C6.1201 9.96245 5.87327 10.2061 5.55168 10.2894L5.54846 10.2975L5.86789 10.426L5.70226 10.8369V10.8374ZM5.36777 8.48091C4.94885 8.31205 4.44819 8.49489 4.27611 8.92188C4.11048 9.33273 4.33258 9.81671 4.75149 9.98557C5.19031 10.1625 5.67483 9.9732 5.8453 9.54998C6.00932 9.1429 5.79852 8.65461 5.36723 8.48037L5.36777 8.48091Z"
  />
  <path
    d="M10.9315 12.027C10.9315 11.4458 11.4026 10.9747 11.9838 10.9747C12.565 10.9747 13.0362 11.4458 13.0362 12.027C13.0362 12.6082 12.565 13.0794 11.9838 13.0794C11.4026 13.0794 10.9315 12.6082 10.9315 12.027Z"
  />
</svg>