<?xml version="1.0" encoding="UTF-8"?>
<svg id="_레이어_1" data-name="레이어 1" xmlns="http://www.w3.org/2000/svg" viewBox="0 0 200 20">
  <defs>
    <style>
      .cls-1 {
        stroke-width: 0px;
      }
    </style>
  </defs>
  <path class="cls-1" d="m4.31,1.09v5.36h.07c.42-.6.96-1.03,1.61-1.3.65-.27,1.29-.41,1.91-.41.89,0,1.61.1,2.18.31.57.21,1.02.49,1.34.86.33.37.56.81.69,1.33.13.52.2,1.1.2,1.74v6.33h-3.31v-5.81c0-.85-.16-1.48-.47-1.9-.31-.42-.86-.63-1.66-.63-.9,0-1.56.23-1.96.69s-.61,1.21-.61,2.26v5.4H1V1.09h3.31Z"/>
  <path class="cls-1" d="m14.7,8.18c.05-.66.24-1.21.58-1.65.34-.44.78-.79,1.31-1.06.53-.27,1.12-.46,1.79-.57s1.33-.17,2-.17c.61,0,1.22.04,1.84.11.62.07,1.19.22,1.7.43s.93.51,1.26.89c.33.38.49.88.49,1.5v5.36c0,.46.03.91.09,1.33.06.43.17.74.33.96h-3.36c-.06-.16-.11-.32-.15-.49s-.07-.34-.08-.51c-.53.47-1.15.79-1.87.98-.72.19-1.45.28-2.19.28-.58,0-1.11-.06-1.61-.18-.5-.12-.93-.3-1.31-.56-.37-.25-.67-.57-.88-.96-.21-.38-.31-.84-.31-1.37,0-.58.12-1.06.36-1.44.24-.38.55-.68.93-.91.38-.22.82-.39,1.31-.51s.98-.2,1.48-.27c.5-.07.99-.12,1.47-.16.48-.04.91-.1,1.28-.18.37-.08.67-.2.89-.35.22-.15.32-.37.3-.67,0-.31-.06-.55-.18-.73-.12-.18-.27-.32-.47-.42-.19-.1-.42-.17-.68-.2-.26-.03-.53-.05-.83-.05-.65,0-1.17.12-1.54.36-.37.24-.59.64-.65,1.19h-3.31Zm7.66,2.09c-.14.11-.31.19-.53.25-.21.06-.44.11-.68.15-.24.04-.49.07-.76.1-.26.03-.53.06-.79.1-.25.04-.49.09-.74.16-.24.07-.45.16-.63.27-.18.11-.32.26-.43.43-.11.17-.16.39-.16.66s.05.46.16.64c.11.17.26.31.44.41.19.1.4.17.65.21s.51.06.77.06c.65,0,1.16-.09,1.52-.28.36-.18.62-.41.79-.67.17-.26.28-.52.31-.79.04-.27.06-.48.06-.64v-1.06Z"/>
  <path class="cls-1" d="m31.39,5.01v1.31h.05c.4-.56.92-.96,1.54-1.21s1.31-.38,2.05-.38c.95,0,1.77.15,2.45.46.68.31,1.25.71,1.7,1.22.45.5.79,1.09,1,1.76.22.67.33,1.37.33,2.1,0,.69-.11,1.35-.33,1.99-.22.64-.55,1.2-.99,1.69s-1,.88-1.66,1.17-1.44.44-2.32.44c-.75,0-1.44-.13-2.07-.39-.63-.26-1.15-.64-1.55-1.14h-.05v4.88h-3.31V5.01h3.15Zm4.31,8.16c.37-.19.66-.43.89-.73.23-.3.39-.65.48-1.05.09-.4.14-.8.14-1.21s-.05-.82-.15-1.21c-.1-.4-.27-.75-.5-1.07-.23-.31-.53-.56-.9-.76-.37-.19-.81-.29-1.34-.29s-1,.1-1.37.29c-.37.19-.66.44-.89.75-.23.31-.39.66-.48,1.06-.09.4-.14.81-.14,1.23s.05.82.15,1.21c.1.4.26.75.49,1.05.23.3.52.54.9.73s.82.28,1.35.28,1-.09,1.37-.28Z"/>
  <path class="cls-1" d="m45.65,5.01v1.31h.05c.4-.56.92-.96,1.54-1.21s1.31-.38,2.05-.38c.95,0,1.77.15,2.45.46.68.31,1.25.71,1.7,1.22.45.5.79,1.09,1,1.76.22.67.33,1.37.33,2.1,0,.69-.11,1.35-.33,1.99-.22.64-.55,1.2-.99,1.69s-1,.88-1.66,1.17-1.44.44-2.32.44c-.75,0-1.44-.13-2.07-.39-.63-.26-1.15-.64-1.55-1.14h-.05v4.88h-3.31V5.01h3.15Zm4.31,8.16c.37-.19.66-.43.89-.73.23-.3.39-.65.48-1.05.09-.4.14-.8.14-1.21s-.05-.82-.15-1.21c-.1-.4-.27-.75-.5-1.07-.23-.31-.53-.56-.9-.76-.37-.19-.81-.29-1.34-.29s-1,.1-1.37.29c-.37.19-.66.44-.89.75-.23.31-.39.66-.48,1.06-.09.4-.14.81-.14,1.23s.05.82.15,1.21c.1.4.26.75.49,1.05.23.3.52.54.9.73s.82.28,1.35.28,1-.09,1.37-.28Z"/>
  <path class="cls-1" d="m61.22,18.37c-.64.36-1.52.54-2.66.54-.34,0-.68-.01-1.02-.03-.34-.02-.67-.04-1.02-.07v-2.33c.31.03.63.05.96.08s.65.03.98.02c.44-.04.76-.19.97-.44.21-.25.31-.53.31-.84,0-.22-.05-.44-.14-.64l-4.22-9.66h3.52l2.73,7.05h.05l2.64-7.05h3.43l-5.04,11.57c-.36.84-.86,1.43-1.49,1.79Z"/>
  <path class="cls-1" d="m72.03,5.01v1.31h.05c.4-.56.92-.96,1.54-1.21s1.31-.38,2.05-.38c.95,0,1.77.15,2.45.46.68.31,1.25.71,1.7,1.22.45.5.79,1.09,1,1.76.22.67.33,1.37.33,2.1,0,.69-.11,1.35-.33,1.99-.22.64-.55,1.2-.99,1.69s-1,.88-1.66,1.17-1.44.44-2.32.44c-.75,0-1.44-.13-2.07-.39-.63-.26-1.15-.64-1.55-1.14h-.05v4.88h-3.31V5.01h3.15Zm4.31,8.16c.37-.19.66-.43.89-.73.23-.3.39-.65.48-1.05.09-.4.14-.8.14-1.21s-.05-.82-.15-1.21c-.1-.4-.27-.75-.5-1.07-.23-.31-.53-.56-.9-.76-.37-.19-.81-.29-1.34-.29s-1,.1-1.37.29c-.37.19-.66.44-.89.75-.23.31-.39.66-.48,1.06-.09.4-.14.81-.14,1.23s.05.82.15,1.21c.1.4.26.75.49,1.05.23.3.52.54.9.73s.82.28,1.35.28,1-.09,1.37-.28Z"/>
  <path class="cls-1" d="m86.45,1.09v5.36h.07c.42-.6.96-1.03,1.61-1.3.65-.27,1.29-.41,1.91-.41.89,0,1.61.1,2.18.31.57.21,1.02.49,1.34.86.33.37.56.81.69,1.33.13.52.2,1.1.2,1.74v6.33h-3.31v-5.81c0-.85-.16-1.48-.47-1.9-.31-.42-.86-.63-1.66-.63-.9,0-1.56.23-1.96.69s-.61,1.21-.61,2.26v5.4h-3.31V1.09h3.31Z"/>
  <path class="cls-1" d="m101.44,18.37c-.64.36-1.52.54-2.66.54-.34,0-.68-.01-1.02-.03-.34-.02-.67-.04-1.02-.07v-2.33c.31.03.63.05.96.08s.65.03.98.02c.44-.04.76-.19.97-.44.21-.25.31-.53.31-.84,0-.22-.05-.44-.14-.64l-4.22-9.66h3.52l2.73,7.05h.05l2.64-7.05h3.43l-5.04,11.57c-.36.84-.86,1.43-1.49,1.79Z"/>
  <path class="cls-1" d="m111.88,12.75c.15.22.34.4.57.54.23.14.5.24.81.31.3.07.62.1.94.1.23,0,.48-.02.74-.07.26-.05.49-.12.7-.22.21-.1.39-.23.52-.4.14-.16.21-.37.21-.63,0-.42-.33-.74-.99-.96-.66-.21-1.58-.42-2.77-.64-.48-.09-.95-.2-1.41-.33s-.87-.29-1.23-.5-.65-.46-.86-.78c-.22-.31-.33-.69-.33-1.14,0-.66.15-1.21.46-1.63.3-.43.7-.76,1.2-1.01.5-.25,1.06-.42,1.68-.52.62-.1,1.26-.15,1.91-.15s1.29.05,1.9.16c.61.11,1.16.29,1.65.54s.88.59,1.2,1.01.51.95.57,1.58h-3.15c-.05-.54-.29-.91-.72-1.1-.44-.19-.95-.29-1.54-.29-.19,0-.39.01-.61.03-.22.02-.42.06-.6.13-.18.07-.33.16-.46.29s-.19.3-.19.51c0,.25.11.46.33.62.22.16.5.29.85.39s.75.19,1.2.27c.45.08.91.17,1.38.26.48.09.95.21,1.41.34s.87.31,1.23.53.65.49.86.82c.22.33.33.73.33,1.2,0,.68-.16,1.25-.48,1.7s-.74.83-1.25,1.1c-.51.28-1.1.48-1.76.59-.66.11-1.33.17-2.02.17s-1.38-.06-2.05-.18c-.67-.12-1.26-.32-1.79-.6-.52-.28-.95-.65-1.28-1.1-.34-.46-.52-1.03-.55-1.72h3.15c0,.31.07.57.22.79Z"/>
  <path class="cls-1" d="m121.72,3.42V1.09h3.31v2.33h-3.31Zm3.31,1.59v10.29h-3.31V5.01h3.31Z"/>
  <path class="cls-1" d="m133.41,6.86c-.53,0-.97.1-1.33.31-.36.21-.65.47-.88.8s-.39.68-.48,1.08c-.09.39-.14.78-.14,1.16s.05.75.14,1.14c.09.38.24.73.45,1.04.21.31.49.57.85.77s.79.3,1.31.3c.79,0,1.4-.19,1.83-.57.43-.38.7-.89.81-1.52h3.2c-.22,1.37-.84,2.41-1.87,3.12-1.03.72-2.34,1.08-3.94,1.08-.9,0-1.73-.13-2.49-.39-.75-.26-1.4-.62-1.93-1.08s-.94-1.02-1.24-1.66c-.3-.64-.44-1.35-.44-2.12s.14-1.54.41-2.22c.27-.68.67-1.27,1.2-1.77.53-.5,1.17-.89,1.94-1.16.76-.28,1.63-.42,2.61-.42.72,0,1.4.08,2.07.24.66.16,1.25.4,1.77.73s.95.73,1.27,1.21.51,1.06.56,1.72h-3.24c-.22-1.18-1.04-1.77-2.45-1.77Z"/>
  <path class="cls-1" d="m143.83,12.75c.15.22.34.4.57.54.23.14.5.24.81.31.3.07.62.1.95.1.23,0,.48-.02.74-.07.26-.05.49-.12.7-.22.21-.1.38-.23.52-.4.14-.16.21-.37.21-.63,0-.42-.33-.74-.99-.96-.66-.21-1.58-.42-2.77-.64-.48-.09-.95-.2-1.41-.33s-.87-.29-1.23-.5-.65-.46-.86-.78c-.22-.31-.33-.69-.33-1.14,0-.66.15-1.21.46-1.63.3-.43.7-.76,1.2-1.01.5-.25,1.06-.42,1.68-.52s1.26-.15,1.91-.15,1.29.05,1.9.16c.61.11,1.16.29,1.65.54s.88.59,1.2,1.01c.32.42.51.95.57,1.58h-3.15c-.05-.54-.29-.91-.72-1.1-.44-.19-.95-.29-1.54-.29-.19,0-.39.01-.61.03-.22.02-.42.06-.59.13-.18.07-.33.16-.46.29s-.19.3-.19.51c0,.25.11.46.33.62s.5.29.85.39c.35.1.75.19,1.2.27.45.08.91.17,1.38.26.48.09.95.21,1.41.34.46.13.87.31,1.22.53.36.22.65.49.86.82.22.33.33.73.33,1.2,0,.68-.16,1.25-.48,1.7-.32.46-.74.83-1.25,1.1-.51.28-1.1.48-1.76.59s-1.33.17-2.02.17-1.39-.06-2.05-.18c-.67-.12-1.26-.32-1.79-.6-.52-.28-.95-.65-1.28-1.1-.34-.46-.52-1.03-.55-1.72h3.15c0,.31.07.57.22.79Z"/>
  <path class="cls-1" d="m159.34,6.86c-.53,0-.97.1-1.33.31-.36.21-.65.47-.88.8-.23.33-.39.68-.48,1.08-.09.39-.14.78-.14,1.16s.05.75.14,1.14c.09.38.25.73.46,1.04.21.31.49.57.85.77.36.2.79.3,1.31.3.79,0,1.4-.19,1.83-.57.43-.38.7-.89.81-1.52h3.2c-.22,1.37-.84,2.41-1.87,3.12-1.03.72-2.34,1.08-3.94,1.08-.9,0-1.73-.13-2.49-.39-.75-.26-1.4-.62-1.93-1.08-.53-.46-.94-1.02-1.24-1.66-.29-.64-.44-1.35-.44-2.12s.14-1.54.41-2.22c.27-.68.67-1.27,1.2-1.77.53-.5,1.17-.89,1.94-1.16.76-.28,1.63-.42,2.61-.42.72,0,1.4.08,2.07.24s1.25.4,1.77.73c.52.33.94.73,1.27,1.21s.51,1.06.56,1.72h-3.24c-.22-1.18-1.04-1.77-2.45-1.77Z"/>
  <path class="cls-1" d="m170.39,1.09v14.22h-3.31V1.09h3.31Z"/>
  <path class="cls-1" d="m181.17,15.31v-1.43h-.07c-.42.6-.97,1.03-1.63,1.29s-1.35.4-2.05.4c-.89,0-1.61-.1-2.18-.3-.57-.2-1.01-.48-1.34-.85-.33-.36-.56-.81-.69-1.33s-.2-1.1-.2-1.74v-6.33h3.31v5.81c0,.85.16,1.48.47,1.9.31.42.86.63,1.66.63.9,0,1.56-.23,1.96-.69.4-.46.61-1.21.61-2.26v-5.4h3.31v10.29h-3.15Z"/>
  <path class="cls-1" d="m190.15,1.09v5.18h.05c.4-.53.95-.92,1.65-1.16.69-.25,1.41-.37,2.16-.37.61,0,1.21.11,1.8.32.59.21,1.12.54,1.6.98.48.44.86,1,1.16,1.68.29.68.44,1.5.44,2.44s-.15,1.76-.44,2.44c-.3.68-.68,1.25-1.16,1.68-.47.44-1.01.76-1.6.97-.59.21-1.19.32-1.8.32-.89,0-1.68-.12-2.38-.36-.7-.24-1.23-.64-1.59-1.21h-.05v1.31h-3.15V1.09h3.31Zm5.37,7.82c-.11-.4-.28-.75-.51-1.06-.23-.31-.53-.55-.88-.73-.35-.18-.77-.27-1.27-.27s-.9.09-1.26.27c-.36.18-.65.42-.89.73-.23.31-.4.66-.51,1.06-.11.4-.16.82-.16,1.25s.05.84.16,1.23c.11.4.28.75.51,1.06.23.31.53.55.89.73s.78.27,1.26.27.92-.09,1.27-.27c.35-.18.64-.42.88-.73.23-.31.4-.66.51-1.06.11-.4.16-.81.16-1.23s-.05-.86-.16-1.25Z"/>
</svg>